# xmcd
#
# Track frame offsets:
#	150
#	12982
#	27063
#	40099
#	54705
#	69871
#	82926
#	95781
#	108240
#	122479
#	134704
#	148564
#	161423
#	174781
#	187207
#	200901
#	214286
#	227869
#	240737
#	254202
#	267755
#
# Disc length: 3739 seconds
#
# Revision: 0
# Processed by: cddbd v1.5.2PL0 Copyright (c) Steve Scherf et al.
# Submitted via: dBpowerAMP V4.0
#
DISCID=320e9915
DTITLE=Memphis Slim - Blues at midnight
DYEAR=1900
DGENRE=Blues
TTITLE0=The Jive Blues
TTITLE1=I Bilieve I'll Settle Down
TTITLE2=Empty Room Blues
TTITLE3=Lend Me Your Love
TTITLE4=Beer Drinking Woman
TTITLE5=Jaspers' Gal
TTITLE6=Diggin' My Potatoes
TTITLE7=Whiskey And Gin Blues
TTITLE8=Grinder Man Blues
TTITLE9=Blues At Midnight
TTITLE10=Miss Ora Lee Blues
TTITLE11=You Gonna Worry Too
TTITLE12=You Don't Mean Me No Good
TTITLE13=Old Taylor
TTITLE14=Caught The Old Coon At Last
TTITLE15=Last Pair Of Shoes Blues
TTITLE16=I See My Great Mistake
TTITLE17=Me, Myself, And I
TTITLE18=You Got To Help Me Some
TTITLE19=Two Of A Kind
TTITLE20=Maybe I'll Loan You A Dime
EXTD=Memphis Slim\nBlues at midnight
EXTT0=
EXTT1=
EXTT2=
EXTT3=
EXTT4=
EXTT5=
EXTT6=
EXTT7=
EXTT8=
EXTT9=
EXTT10=
EXTT11=
EXTT12=
EXTT13=
EXTT14=
EXTT15=
EXTT16=
EXTT17=
EXTT18=
EXTT19=
EXTT20=
PLAYORDER=
